<svg width="143" height="23" viewBox="0 0 143 23" fill="none" xmlns="http://www.w3.org/2000/svg">
<path d="M48.6918 1.53159H94.3126V9.19716H66.1235V10.7364H94.3137V18.402H66.1235V21.4684H48.6918V1.53159Z" fill="#E3E3E3"/>
<path d="M1.53491 1.53159H22.0397L29.7241 15.3333V1.53159H47.1558V21.4684H26.651L18.9666 7.66666V21.4684H1.53491V1.53159Z" fill="#E3E3E3"/>
<path d="M141.465 8.43355V6.11326C141.465 3.58243 139.41 1.53159 136.873 1.53159H100.436C97.8995 1.53159 95.8442 3.58243 95.8442 6.11326V8.69427C95.8442 11.128 97.7508 13.1363 100.185 13.2694L124.033 14.5664V16.8671H113.275V14.5664H95.8431V16.8856C95.8431 19.4165 97.8984 21.4673 100.435 21.4673H136.873C139.41 21.4673 141.465 19.4165 141.465 16.8856V14.3046C141.465 11.8709 139.558 9.8626 137.124 9.72951L113.275 8.43246V6.13289H124.033V8.43355H141.465Z" fill="#E3E3E3"/>
</svg>
